<?xml version="1.0" standalone="no"?>
<!DOCTYPE svg PUBLIC "-//W3C//DTD SVG 20010904//EN"
 "http://www.w3.org/TR/2001/REC-SVG-20010904/DTD/svg10.dtd">
<svg version="1.0" xmlns="http://www.w3.org/2000/svg"
 width="191.000000pt" height="191.000000pt" viewBox="0 0 191.000000 191.000000"
 preserveAspectRatio="xMidYMid meet">
<metadata>
Created by potrace 1.11, written by Peter Selinger 2001-2013
</metadata>
<g transform="translate(0.000000,191.000000) scale(0.100000,-0.100000)"
fill="#000000" stroke="none">
<path d="M827 1728 c-47 -182 -61 -238 -73 -293 -7 -33 -20 -82 -28 -110 -9
-27 -16 -57 -16 -66 0 -19 10 -18 140 20 180 52 323 93 505 144 50 14 119 33
154 43 l64 18 -75 72 c-154 148 -367 234 -578 234 l-77 0 -16 -62z"/>
<path d="M646 1750 c-165 -56 -303 -155 -403 -288 -32 -43 -69 -101 -82 -129
l-24 -53 134 -127 c74 -70 167 -159 206 -197 40 -38 75 -67 77 -65 2 2 17 58
34 124 17 66 65 255 108 420 98 382 91 345 63 345 -13 0 -64 -14 -113 -30z"/>
<path d="M94 1158 c-15 -50 -19 -95 -18 -218 0 -148 1 -159 32 -248 42 -123
114 -252 140 -252 7 0 68 16 135 36 67 20 181 53 252 73 72 21 130 42 130 47
0 9 -629 616 -644 622 -5 1 -17 -26 -27 -60z"/>
<path d="M858 1098 l-3 -83 -83 -3 -83 -3 3 -57 3 -57 83 -3 82 -3 0 -89 0
-90 60 0 60 0 0 90 0 90 80 0 80 0 0 60 0 60 -80 0 -80 0 0 85 0 85 -60 0 -59
0 -3 -82z"/>
<path d="M1080 625 c-66 -18 -405 -117 -550 -160 -69 -20 -149 -43 -179 -51
-29 -8 -58 -17 -63 -20 -13 -8 43 -65 123 -125 139 -103 333 -169 502 -169 82
0 117 11 117 35 0 13 100 433 116 488 6 20 -3 20 -66 2z"/>
</g>
</svg>
