<?xml version="1.0" encoding="UTF-8" standalone="no"?>
<!-- Created with Inkscape (http://www.inkscape.org/) -->

<svg
   xmlns:dc="http://purl.org/dc/elements/1.1/"
   xmlns:cc="http://creativecommons.org/ns#"
   xmlns:rdf="http://www.w3.org/1999/02/22-rdf-syntax-ns#"
   xmlns:svg="http://www.w3.org/2000/svg"
   xmlns="http://www.w3.org/2000/svg"
   xmlns:sodipodi="http://sodipodi.sourceforge.net/DTD/sodipodi-0.dtd"
   xmlns:inkscape="http://www.inkscape.org/namespaces/inkscape"
   version="1.1"
   id="svg2"
   xml:space="preserve"
   width="1089.5306"
   height="336.71967"
   viewBox="0 0 1089.5306 336.71967"
   sodipodi:docname="focusplus - logo et texte.svg"
   inkscape:version="0.92.4 (5da689c313, 2019-01-14)"><title
     id="title839">logo Focus+</title><metadata
     id="metadata8"><rdf:RDF><cc:Work
         rdf:about=""><dc:format>image/svg+xml</dc:format><dc:type
           rdf:resource="http://purl.org/dc/dcmitype/StillImage" /><dc:title>logo Focus+</dc:title><dc:date>2019</dc:date><dc:creator><cc:Agent><dc:title>Erwan le Gall</dc:title></cc:Agent></dc:creator><dc:rights><cc:Agent><dc:title>Licence Creative Commons CC-By</dc:title></cc:Agent></dc:rights><dc:publisher><cc:Agent><dc:title>Erwan le Gall</dc:title></cc:Agent></dc:publisher><dc:language>zxx</dc:language><dc:subject><rdf:Bag><rdf:li>logo</rdf:li><rdf:li>projet Focus+</rdf:li><rdf:li>Focus+</rdf:li><rdf:li>Focusplus</rdf:li></rdf:Bag></dc:subject><dc:coverage>international</dc:coverage><dc:identifier>https://github.com/ele-gall-ac-mineducation/focusplus_assets/blob/master/focusplus%20-%20logo%20et%20texte.svg</dc:identifier></cc:Work></rdf:RDF></metadata><defs
     id="defs6"><clipPath
       clipPathUnits="userSpaceOnUse"
       id="clipPath18"><path
         d="M 0,0.028 H 793.672 V 595.275 H 0 Z"
         id="path16"
         inkscape:connector-curvature="0"
         style="clip-rule:evenodd" /></clipPath><clipPath
       clipPathUnits="userSpaceOnUse"
       id="clipPath28"><path
         d="M 0,0 H 793.7 V 595.275 H 0 Z"
         id="path26"
         inkscape:connector-curvature="0"
         style="clip-rule:evenodd" /></clipPath><clipPath
       clipPathUnits="userSpaceOnUse"
       id="clipPath50"><path
         d="M 0,0.028 H 793.672 V 595.275 H 0 Z"
         id="path48"
         inkscape:connector-curvature="0"
         style="clip-rule:evenodd" /></clipPath></defs><sodipodi:namedview
     pagecolor="#ffffff"
     bordercolor="#666666"
     borderopacity="1"
     objecttolerance="10"
     gridtolerance="10"
     guidetolerance="10"
     inkscape:pageopacity="0"
     inkscape:pageshadow="2"
     inkscape:window-width="1920"
     inkscape:window-height="1151"
     id="namedview4"
     showgrid="false"
     inkscape:zoom="1.0230555"
     inkscape:cx="78.811579"
     inkscape:cy="8.7813608"
     inkscape:window-x="0"
     inkscape:window-y="25"
     inkscape:window-maximized="1"
     inkscape:current-layer="g10"
     fit-margin-top="10"
     fit-margin-right="10"
     fit-margin-bottom="10"
     fit-margin-left="10" /><g
     id="g10"
     inkscape:groupmode="layer"
     inkscape:label="focusplus"
     transform="matrix(1.3333333,0,0,-1.3333333,13.78,572.041)"><path
       d="M -2.835,421.53076 H 799.313 V 183.991 H -2.835 Z"
       style="fill:#ededed;fill-opacity:1;fill-rule:evenodd;stroke:none;stroke-width:0.63013881"
       id="path30"
       inkscape:connector-curvature="0"
       inkscape:export-xdpi="30.338541"
       inkscape:export-ydpi="30.338541" /><g
       id="g876"
       transform="translate(-3.236182)"
       inkscape:export-xdpi="30.338541"
       inkscape:export-ydpi="30.338541"><g
   transform="matrix(0.33746578,0,0,0.33746578,-13.724711,197.19527)"
   id="g854"><path
   inkscape:connector-curvature="0"
   style="opacity:1;vector-effect:none;fill:#ec2028;fill-opacity:1;stroke:#ffffff;stroke-width:1;stroke-linecap:butt;stroke-linejoin:miter;stroke-miterlimit:4;stroke-dasharray:none;stroke-dashoffset:11.82999992;stroke-opacity:1;paint-order:markers fill stroke"
   d="M 484.02344,97.802734 A 302.68253,302.68253 0 0 0 250.44141,278.78125 l 150.5664,143.24219 z"
   transform="matrix(0.75000002,0,0,-0.75000002,0,595.27561)"
   id="circle893" /><path
   inkscape:connector-curvature="0"
   style="opacity:1;vector-effect:none;fill:#9e2462;fill-opacity:1;stroke:#ffffff;stroke-width:1;stroke-linecap:butt;stroke-linejoin:miter;stroke-miterlimit:4;stroke-dasharray:none;stroke-dashoffset:11.82999992;stroke-opacity:1;paint-order:markers fill stroke"
   d="m 244.32617,295.4707 a 302.68253,302.68253 0 0 0 -17.875,101.37891 302.68253,302.68253 0 0 0 62.28125,183.53125 l 193.95117,-56.38672 z"
   transform="matrix(0.75000002,0,0,-0.75000002,0,595.27561)"
   id="circle895" /><path
   inkscape:connector-curvature="0"
   style="opacity:1;vector-effect:none;fill:#065885;fill-opacity:1;stroke:#ffffff;stroke-width:1;stroke-linecap:butt;stroke-linejoin:miter;stroke-miterlimit:4;stroke-dasharray:none;stroke-dashoffset:11.82999992;stroke-opacity:1;paint-order:markers fill stroke"
   d="m 614.58984,501.80859 -314.98242,91.8125 a 302.68253,302.68253 0 0 0 229.52735,105.91211 302.68253,302.68253 0 0 0 38.23632,-2.80078 z"
   transform="matrix(0.75000002,0,0,-0.75000002,0,595.27561)"
   id="circle897" /><path
   inkscape:connector-curvature="0"
   style="opacity:1;vector-effect:none;fill:#1da086;fill-opacity:1;stroke:#ffffff;stroke-width:1;stroke-linecap:butt;stroke-linejoin:miter;stroke-miterlimit:4;stroke-dasharray:none;stroke-dashoffset:11.82999992;stroke-opacity:1;paint-order:markers fill stroke"
   d="M 662.09766,381.08984 583.59375,694.45312 A 302.68253,302.68253 0 0 0 806.31836,518.04492 Z"
   transform="matrix(0.75000002,0,0,-0.75000002,0,595.27561)"
   id="circle899" /><path
   inkscape:connector-curvature="0"
   style="opacity:1;vector-effect:none;fill:#ebae05;fill-opacity:1;stroke:#ffffff;stroke-width:1;stroke-linecap:butt;stroke-linejoin:miter;stroke-miterlimit:4;stroke-dasharray:none;stroke-dashoffset:11.82999992;stroke-opacity:1;paint-order:markers fill stroke"
   d="M 777.89062,225.00195 579.66602,283.27734 812.35156,502.5918 A 302.68253,302.68253 0 0 0 831.81641,396.84961 302.68253,302.68253 0 0 0 777.89062,225.00195 Z"
   transform="matrix(0.75000002,0,0,-0.75000002,0,595.27561)"
   id="circle901" /><path
   inkscape:connector-curvature="0"
   style="opacity:1;vector-effect:none;fill:#fc6d03;fill-opacity:1;stroke:#ffffff;stroke-width:1;stroke-linecap:butt;stroke-linejoin:miter;stroke-miterlimit:4;stroke-dasharray:none;stroke-dashoffset:11.82999992;stroke-opacity:1;paint-order:markers fill stroke"
   d="m 529.13477,94.167969 a 302.68253,302.68253 0 0 0 -29.3086,1.716797 L 449.6875,297.97852 765.9082,208.33008 A 302.68253,302.68253 0 0 0 529.13477,94.167969 Z"
   transform="matrix(0.75000002,0,0,-0.75000002,0,595.27561)"
   id="circle903" /><g
   aria-label="+"
   transform="scale(1,-1)"
   style="font-style:normal;font-variant:normal;font-weight:normal;font-stretch:normal;font-size:244px;line-height:1.25;font-family:Roboto;-inkscape-font-specification:Roboto;text-align:center;letter-spacing:0px;word-spacing:0px;text-anchor:middle;fill:#000000;fill-opacity:1;stroke:none;stroke-width:0.75"
   id="text844"><path
     d="m 456.30157,-283.22179 h -43.00976 v 48.72852 h -32.64453 v -48.72852 h -43.24805 v -31.0957 h 43.24805 v -46.46484 h 32.64453 v 46.46484 h 43.00976 z"
     style="font-style:normal;font-variant:normal;font-weight:bold;font-stretch:normal;font-family:Roboto;-inkscape-font-specification:'Roboto Bold';stroke-width:0.75"
     id="path840"
     inkscape:connector-curvature="0" /></g>

</g><g
   aria-label="FOCUS+"
   transform="scale(1,-1)"
   style="font-style:normal;font-variant:normal;font-weight:normal;font-stretch:normal;font-size:144px;line-height:1.25;font-family:Roboto;-inkscape-font-specification:Roboto;text-align:center;letter-spacing:0px;word-spacing:0px;text-anchor:middle;fill:#000000;fill-opacity:1;stroke:none;stroke-width:0.75"
   id="text858"><path
     d="m 234.99103,-246.41515 v -102.375 h 66.72656 v 17.08594 h -45.5625 v 26.4375 h 40.5 v 17.01563 h -40.5 v 41.83593 z"
     style="font-style:normal;font-variant:normal;font-weight:bold;font-stretch:normal;font-family:Roboto;-inkscape-font-specification:'Roboto Bold';stroke-width:0.75"
     id="path835"
     inkscape:connector-curvature="0" /><path
     d="m 398.18634,-295.28233 q 0,23.41406 -12.16406,36.84375 -12.09375,13.42968 -31.35938,13.42968 -19.26562,0 -31.5,-13.42968 -12.23437,-13.42969 -12.23437,-36.84375 v -4.57032 q 0,-23.41406 12.16406,-36.84375 12.16406,-13.5 31.42969,-13.5 19.26562,0 31.42969,13.5 12.23437,13.42969 12.23437,36.84375 z m -21.375,-4.71094 q 0,-16.03125 -5.83594,-24.39844 -5.83593,-8.36719 -16.45312,-8.36719 -10.61719,0 -16.38281,8.29688 -5.76563,8.22656 -5.83594,24.11719 v 5.0625 q 0,15.96093 5.83594,24.46875 5.83593,8.4375 16.52343,8.4375 10.61719,0 16.3125,-8.36719 5.76563,-8.36719 5.83594,-24.1875 z"
     style="font-style:normal;font-variant:normal;font-weight:bold;font-stretch:normal;font-family:Roboto;-inkscape-font-specification:'Roboto Bold';stroke-width:0.75"
     id="path837"
     inkscape:connector-curvature="0" /><path
     d="m 472.92853,-280.51671 h 21.09375 q -1.05469,15.60938 -11.74219,25.59375 -10.61719,9.91406 -29.46094,9.91406 -19.6875,0 -31.00781,-13.21875 -11.32031,-13.28906 -11.32031,-36 v -6.67968 q 0,-22.71094 11.60156,-36 11.60156,-13.35938 30.9375,-13.35938 19.19531,0 29.39063,10.26563 10.19531,10.19531 11.67187,25.94531 h -21.09375 q -0.70312,-9.14063 -5.13281,-13.99219 -4.35938,-4.92187 -14.83594,-4.92187 -20.53125,0 -21.09375,30.30468 v 8.4375 q 0,15.89063 4.78125,23.90625 4.85156,8.01563 16.10156,8.01563 9.98438,0 14.625,-4.5 4.71094,-4.57031 5.48438,-13.71094 z"
     style="font-style:normal;font-variant:normal;font-weight:bold;font-stretch:normal;font-family:Roboto;-inkscape-font-specification:'Roboto Bold';stroke-width:0.75"
     id="path839"
     inkscape:connector-curvature="0" /><path
     d="m 564.19415,-348.79015 h 21.16407 v 67.5 q 0,17.85938 -11.10938,27.07032 -11.10937,9.21093 -28.125,9.21093 -17.22656,0 -28.26562,-9.21093 -11.03907,-9.21094 -11.03907,-27.07032 v -67.5 h 21.16407 v 67.5 q 0,10.125 4.78125,14.69532 4.85156,4.57031 13.35937,4.57031 17.64844,0 18.07031,-18.35156 z"
     style="font-style:normal;font-variant:normal;font-weight:bold;font-stretch:normal;font-family:Roboto;-inkscape-font-specification:'Roboto Bold';stroke-width:0.75"
     id="path841"
     inkscape:connector-curvature="0" /><path
     d="m 655.74103,-273.27452 q 0,-5.13281 -3.51563,-8.50781 -3.51562,-3.44532 -17.08593,-7.80469 -13.5,-4.42969 -23.34375,-11.39063 -10.33594,-7.24218 -10.33594,-20.60156 0,-12.86719 10.61719,-20.74219 10.61718,-7.875 27.21093,-7.875 17.01563,0 27.28125,8.92969 10.26563,8.85938 10.26563,22.64063 h -21.09375 q 0,-6.46875 -4.14844,-10.61719 -4.14844,-4.14844 -12.65625,-4.14844 -8.29687,0 -12.375,3.51563 -4.00781,3.44531 -4.00781,8.36718 0,5.0625 5.20312,8.4375 5.20313,3.375 15.11719,6.39844 16.80469,5.13281 25.38281,12.86719 8.64844,7.73437 8.64844,20.39062 0,13.42969 -10.125,20.95313 -10.125,7.45312 -27,7.45312 -10.19531,0 -19.6875,-3.58593 -9.49219,-3.58594 -15.60937,-11.03907 -6.11719,-7.45312 -6.11719,-19.05468 h 21.16406 q 0,9.35156 5.55469,13.14843 5.625,3.79688 14.69531,3.79688 8.15625,0 12.02344,-3.30469 3.9375,-3.30469 3.9375,-8.22656 z"
     style="font-style:normal;font-variant:normal;font-weight:bold;font-stretch:normal;font-family:Roboto;-inkscape-font-specification:'Roboto Bold';stroke-width:0.75"
     id="path843"
     inkscape:connector-curvature="0" /><path
     d="m 753.54572,-285.43858 h -24.60938 l -4.99219,28.75781 H 705.1004 l 4.99219,-28.75781 h -24.82031 l 3.23437,-18.35157 h 24.75 l 4.78125,-27.42187 h 18.84375 l -4.78125,27.42187 h 24.60938 z"
     style="font-style:italic;font-variant:normal;font-weight:bold;font-stretch:normal;font-family:Roboto;-inkscape-font-specification:'Roboto Bold Italic'"
     id="path845"
     inkscape:connector-curvature="0" /></g>
</g>
   </g>
</svg>
